<?xml version="1.0" encoding="UTF-8"?>
<svg xmlns="http://www.w3.org/2000/svg">
    <symbol id="add" viewBox="0 0 24 24">
         <svg
            width="24"
            height="24"
            viewBox="0 0 800 800"
            className="text-gray-400"
          >
            <g
              transform="translate(0.000000,800.000000) scale(0.100000,-0.100000)"
              fill="currentColor"
            >
              <path d="M3745 7574 c-16 -2 -79 -9 -140 -15 -236 -23 -522 -87 -770 -173 -1224 -420 -2129 -1473 -2359 -2746 -43 -238 -51 -340 -51 -640 0 -300 8 -402 51 -640 265 -1465 1419 -2619 2884 -2884 238 -43 340 -51 640 -51 300 0 402 8 640 51 1465 265 2619 1419 2884 2884 43 238 51 340 51 640 0 300 -8 402 -51 640 -248 1369 -1272 2473 -2619 2825 -307 80 -510 106 -860 110 -148 2 -283 1 -300 -1z m595 -510 c1441 -165 2559 -1283 2724 -2724 21 -176 21 -504 0 -680 -165 -1441 -1283 -2559 -2724 -2724 -176 -21 -504 -21 -680 0 -1441 165 -2559 1283 -2724 2724 -33 284 -17 654 41 945 260 1309 1337 2301 2673 2459 162 19 524 20 690 0z" />
              <path d="M3940 5241 c-79 -26 -132 -72 -166 -146 -24 -50 -24 -51 -24 -447 l0 -398 -398 0 -399 0 -61 -31 c-68 -34 -112 -85 -131 -154 -15 -55 -14 -86 5 -142 22 -64 58 -108 113 -141 l46 -27 413 -3 412 -3 0 -392 c0 -446 1 -457 77 -533 95 -95 246 -97 341 -5 78 76 77 66 80 523 l3 407 407 3 c406 3 407 3 455 27 96 47 153 168 129 272 -18 78 -61 132 -134 168 l-61 31 -398 0 -398 0 -3 408 c-3 394 -4 408 -24 447 -28 51 -68 92 -118 117 -43 22 -128 32 -166 19z" />
            </g>
          </svg>
    </symbol>

    <symbol id="cross" viewBox="0 0 14 14">
        <svg
                    className="w-3 h-3"
                    aria-hidden="true"
                    xmlns="http://www.w3.org/2000/svg"
                    fill="none"
                    viewBox="0 0 14 14"
                  >
                    <path
                      stroke="currentColor"
                      strokeLinecap="round"
                      strokeLinejoin="round"
                      strokeWidth="2"
                      d="m1 1 6 6m0 0 6 6M7 7l6-6M7 7l-6 6"
                    />
                  </svg>
    </symbol>



</svg>
